ffmpeg started on 2025-05-12 at 18:20:27
Report written to "D:\Convert\FFMetrics\reports\ssim_report-6.txt"
Log level: 32
Command line:
ffmpeg -hide_banner -nostdin -i "G:\\\xc0\xed\xe8\xec\xe5\\\xce\xed\xe3\xee\xe8\xed\xe3\xe8\\!_35_\xcb\xe5\xf2\xee_2024\\DreamCast\\\xce\xf2\xf0\xff\xe4 \xf1\xe0\xec\xee\xf3\xe1\xe8\xe9\xf6 \xe8\xe7 \xe4\xf0\xf3\xe3\xee\xe3\xee \xec\xe8\xf0\xe0\\[DC] Isekai Suicide Squad - 06_Telegram_HEVC.mkv" -i "G:\\\xc0\xed\xe8\xec\xe5\\\xce\xed\xe3\xee\xe8\xed\xe3\xe8\\!_35_\xcb\xe5\xf2\xee_2024\\DreamCast\\\xce\xf2\xf0\xff\xe4 \xf1\xe0\xec\xee\xf3\xe1\xe8\xe9\xf6 \xe8\xe7 \xe4\xf0\xf3\xe3\xee\xe3\xee \xec\xe8\xf0\xe0\\[DC] Isekai Suicide Squad - 06_Telegram.mp4" -lavfi "[0:v]settb=AVTB,setpts=PTS-STARTPTS,format=pix_fmts=yuv420p10,fps=25/1,scale=1920:1080:flags=bicubic[main];[1:v]settb=AVTB,setpts=PTS-STARTPTS,format=pix_fmts=yuv420p,fps=25/1,scale=1920:1080:flags=bicubic[ref];[main][ref]ssim=eof_action=endall:stats_file='D\\:/Convert/FFMetrics/logs/ssim_logfile-6.txt'" -f null -
Input #0, matroska,webm, from 'G:\Аниме\Онгоинги\!_35_Лето_2024\DreamCast\Отряд самоубийц из другого мира\[DC] Isekai Suicide Squad - 06_Telegram_HEVC.mkv':
  Metadata:
    COMPATIBLE_BRANDS: isomiso2avc1mp41
    MAJOR_BRAND     : isom
    MINOR_VERSION   : 512
    ENCODER         : Lavf61.7.100
  Duration: 00:23:12.60, start: -0.021000, bitrate: 1135 kb/s
  Stream #0:0: Video: hevc (Main 10), yuv420p10le(tv, bt709, progressive), 1920x1080 [SAR 1:1 DAR 16:9], 25 fps, 25 tbr, 1k tbn (default)
      Metadata:
        HANDLER_NAME    : VideoHandler
        VENDOR_ID       : [0][0][0][0]
        ENCODER         : Lavc61.19.100 libx265
        BPS             : 937854
        DURATION        : 00:23:12.520000000
        NUMBER_OF_FRAMES: 34813
        NUMBER_OF_BYTES : 163247730
        _STATISTICS_WRITING_APP: mkvpropedit v66.0.0 ('Josie') 64-bit
        _STATISTICS_WRITING_DATE_UTC: 2025-05-09 13:49:45
        _STATISTICS_TAGS: BPS DURATION NUMBER_OF_FRAMES NUMBER_OF_BYTES
  Stream #0:1: Audio: aac (LC), 48000 Hz, stereo, fltp (default)
      Metadata:
        HANDLER_NAME    : SoundHandler
        VENDOR_ID       : [0][0][0][0]
        ENCODER         : Lavc61.19.100 aac
        BPS             : 193127
        DURATION        : 00:23:12.597000000
        NUMBER_OF_FRAMES: 65279
        NUMBER_OF_BYTES : 33618543
        _STATISTICS_WRITING_APP: mkvpropedit v66.0.0 ('Josie') 64-bit
        _STATISTICS_WRITING_DATE_UTC: 2025-05-09 13:49:45
        _STATISTICS_TAGS: BPS DURATION NUMBER_OF_FRAMES NUMBER_OF_BYTES
Input #1, mov,mp4,m4a,3gp,3g2,mj2, from 'G:\Аниме\Онгоинги\!_35_Лето_2024\DreamCast\Отряд самоубийц из другого мира\[DC] Isekai Suicide Squad - 06_Telegram.mp4':
  Metadata:
    major_brand     : isom
    minor_version   : 512
    compatible_brands: isomiso2avc1mp41
    encoder         : Lavf61.1.100
  Duration: 00:23:12.57, start: 0.000000, bitrate: 3172 kb/s
  Stream #1:0[0x1](und): Video: h264 (High) (avc1 / 0x31637661), yuv420p(tv, bt709, progressive), 1920x1080 [SAR 1:1 DAR 16:9], 3023 kb/s, 25 fps, 25 tbr, 12800 tbn (default)
      Metadata:
        handler_name    : VideoHandler
        vendor_id       : [0][0][0][0]
        encoder         : Lavc61.3.100 h264_qsv
  Stream #1:1[0x2](und): Audio: aac (HE-AACv2) (mp4a / 0x6134706D), 48000 Hz, stereo, fltp, 144 kb/s (default)
      Metadata:
        handler_name    : SoundHandler
        vendor_id       : [0][0][0][0]
Stream mapping:
  Stream #0:0 (hevc) -> settb:default
  Stream #1:0 (h264) -> settb:default
  ssim:default -> Stream #0:0 (wrapped_avframe)
  Stream #0:1 -> #0:1 (aac (native) -> pcm_s16le (native))
Output #0, null, to 'pipe:':
  Metadata:
    COMPATIBLE_BRANDS: isomiso2avc1mp41
    MAJOR_BRAND     : isom
    MINOR_VERSION   : 512
    encoder         : Lavf61.7.100
  Stream #0:0: Video: wrapped_avframe, yuv420p10le(tv, bt709, progressive), 1920x1080 [SAR 1:1 DAR 16:9], q=2-31, 200 kb/s, 25 fps, 25 tbn
      Metadata:
        encoder         : Lavc61.19.100 wrapped_avframe
  Stream #0:1: Audio: pcm_s16le, 48000 Hz, stereo, s16, 1536 kb/s (default)
      Metadata:
        HANDLER_NAME    : SoundHandler
        VENDOR_ID       : [0][0][0][0]
        _STATISTICS_TAGS: BPS DURATION NUMBER_OF_FRAMES NUMBER_OF_BYTES
        BPS             : 193127
        DURATION        : 00:23:12.597000000
        NUMBER_OF_FRAMES: 65279
        NUMBER_OF_BYTES : 33618543
        _STATISTICS_WRITING_APP: mkvpropedit v66.0.0 ('Josie') 64-bit
        _STATISTICS_WRITING_DATE_UTC: 2025-05-09 13:49:45
        encoder         : Lavc61.19.100 pcm_s16le
frame=  155 fps=0.0 q=-0.0 size=N/A time=00:00:06.20 bitrate=N/A speed=12.1x    frame=  350 fps=338 q=-0.0 size=N/A time=00:00:14.00 bitrate=N/A speed=13.5x    frame=  576 fps=373 q=-0.0 size=N/A time=00:00:23.04 bitrate=N/A speed=14.9x    frame=  837 fps=405 q=-0.0 size=N/A time=00:00:33.48 bitrate=N/A speed=16.2x    frame= 1067 fps=414 q=-0.0 size=N/A time=00:00:42.68 bitrate=N/A speed=16.6x    frame= 1315 fps=424 q=-0.0 size=N/A time=00:00:52.60 bitrate=N/A speed=  17x    frame= 1563 fps=433 q=-0.0 size=N/A time=00:01:02.52 bitrate=N/A speed=17.3x    frame= 1829 fps=443 q=-0.0 size=N/A time=00:01:13.16 bitrate=N/A speed=17.7x    frame= 2062 fps=443 q=-0.0 size=N/A time=00:01:22.48 bitrate=N/A speed=17.7x    frame= 2293 fps=445 q=-0.0 size=N/A time=00:01:31.72 bitrate=N/A speed=17.8x    frame= 2550 fps=449 q=-0.0 size=N/A time=00:01:42.00 bitrate=N/A speed=  18x    frame= 2761 fps=446 q=-0.0 size=N/A time=00:01:50.44 bitrate=N/A speed=17.8x    frame= 2980 fps=445 q=-0.0 size=N/A time=00:01:59.20 bitrate=N/A speed=17.8x    frame= 3202 fps=443 q=-0.0 size=N/A time=00:02:08.08 bitrate=N/A speed=17.7x    frame= 3402 fps=439 q=-0.0 size=N/A time=00:02:16.08 bitrate=N/A speed=17.6x    frame= 3635 fps=440 q=-0.0 size=N/A time=00:02:25.40 bitrate=N/A speed=17.6x    frame= 3886 fps=442 q=-0.0 size=N/A time=00:02:35.44 bitrate=N/A speed=17.7x    frame= 4154 fps=446 q=-0.0 size=N/A time=00:02:46.16 bitrate=N/A speed=17.8x    frame= 4396 fps=447 q=-0.0 size=N/A time=00:02:55.84 bitrate=N/A speed=17.9x    frame= 4634 fps=448 q=-0.0 size=N/A time=00:03:05.36 bitrate=N/A speed=17.9x    frame= 4873 fps=448 q=-0.0 size=N/A time=00:03:14.92 bitrate=N/A speed=17.9x    frame= 5128 fps=451 q=-0.0 size=N/A time=00:03:25.12 bitrate=N/A speed=  18x    frame= 5365 fps=451 q=-0.0 size=N/A time=00:03:34.60 bitrate=N/A speed=  18x    frame= 5609 fps=452 q=-0.0 size=N/A time=00:03:44.36 bitrate=N/A speed=18.1x    frame= 5813 fps=450 q=-0.0 size=N/A time=00:03:52.52 bitrate=N/A speed=  18x    frame= 6050 fps=450 q=-0.0 size=N/A time=00:04:02.00 bitrate=N/A speed=  18x    frame= 6306 fps=452 q=-0.0 size=N/A time=00:04:12.24 bitrate=N/A speed=18.1x    frame= 6512 fps=450 q=-0.0 size=N/A time=00:04:20.48 bitrate=N/A speed=  18x    frame= 6729 fps=449 q=-0.0 size=N/A time=00:04:29.16 bitrate=N/A speed=  18x    frame= 6961 fps=449 q=-0.0 size=N/A time=00:04:38.44 bitrate=N/A speed=  18x    frame= 7147 fps=446 q=-0.0 size=N/A time=00:04:45.88 bitrate=N/A speed=17.9x    frame= 7357 fps=445 q=-0.0 size=N/A time=00:04:54.28 bitrate=N/A speed=17.8x    frame= 7580 fps=444 q=-0.0 size=N/A time=00:05:03.20 bitrate=N/A speed=17.8x    frame= 7804 fps=444 q=-0.0 size=N/A time=00:05:12.16 bitrate=N/A speed=17.8x    frame= 8054 fps=445 q=-0.0 size=N/A time=00:05:22.16 bitrate=N/A speed=17.8x    frame= 8257 fps=444 q=-0.0 size=N/A time=00:05:30.28 bitrate=N/A speed=17.8x    frame= 8499 fps=445 q=-0.0 size=N/A time=00:05:39.96 bitrate=N/A speed=17.8x    frame= 8741 fps=445 q=-0.0 size=N/A time=00:05:49.64 bitrate=N/A speed=17.8x    frame= 8985 fps=446 q=-0.0 size=N/A time=00:05:59.40 bitrate=N/A speed=17.8x    frame= 9210 fps=446 q=-0.0 size=N/A time=00:06:08.40 bitrate=N/A speed=17.8x    frame= 9409 fps=444 q=-0.0 size=N/A time=00:06:16.36 bitrate=N/A speed=17.8x    frame= 9644 fps=444 q=-0.0 size=N/A time=00:06:25.76 bitrate=N/A speed=17.8x    frame= 9866 fps=444 q=-0.0 size=N/A time=00:06:34.64 bitrate=N/A speed=17.8x    frame=10112 fps=445 q=-0.0 size=N/A time=00:06:44.48 bitrate=N/A speed=17.8x    frame=10370 fps=446 q=-0.0 size=N/A time=00:06:54.80 bitrate=N/A speed=17.8x    frame=10625 fps=447 q=-0.0 size=N/A time=00:07:05.00 bitrate=N/A speed=17.9x    frame=10882 fps=448 q=-0.0 size=N/A time=00:07:15.28 bitrate=N/A speed=17.9x    frame=11127 fps=449 q=-0.0 size=N/A time=00:07:25.08 bitrate=N/A speed=  18x    frame=11390 fps=450 q=-0.0 size=N/A time=00:07:35.60 bitrate=N/A speed=  18x    frame=11650 fps=451 q=-0.0 size=N/A time=00:07:46.00 bitrate=N/A speed=  18x    frame=11893 fps=452 q=-0.0 size=N/A time=00:07:55.72 bitrate=N/A speed=18.1x    frame=12132 fps=452 q=-0.0 size=N/A time=00:08:05.28 bitrate=N/A speed=18.1x    frame=12322 fps=450 q=-0.0 size=N/A time=00:08:12.88 bitrate=N/A speed=  18x    frame=12520 fps=449 q=-0.0 size=N/A time=00:08:20.80 bitrate=N/A speed=  18x    frame=12774 fps=450 q=-0.0 size=N/A time=00:08:30.96 bitrate=N/A speed=  18x    frame=13000 fps=450 q=-0.0 size=N/A time=00:08:40.00 bitrate=N/A speed=  18x    frame=13259 fps=450 q=-0.0 size=N/A time=00:08:50.36 bitrate=N/A speed=  18x    frame=13520 fps=451 q=-0.0 size=N/A time=00:09:00.80 bitrate=N/A speed=  18x    frame=13788 fps=452 q=-0.0 size=N/A time=00:09:11.52 bitrate=N/A speed=18.1x    frame=14059 fps=454 q=-0.0 size=N/A time=00:09:22.36 bitrate=N/A speed=18.1x    frame=14336 fps=455 q=-0.0 size=N/A time=00:09:33.44 bitrate=N/A speed=18.2x    frame=14610 fps=456 q=-0.0 size=N/A time=00:09:44.40 bitrate=N/A speed=18.2x    frame=14865 fps=457 q=-0.0 size=N/A time=00:09:54.60 bitrate=N/A speed=18.3x    frame=15128 fps=458 q=-0.0 size=N/A time=00:10:05.12 bitrate=N/A speed=18.3x    frame=15375 fps=458 q=-0.0 size=N/A time=00:10:15.00 bitrate=N/A speed=18.3x    frame=15651 fps=459 q=-0.0 size=N/A time=00:10:26.04 bitrate=N/A speed=18.4x    frame=15915 fps=460 q=-0.0 size=N/A time=00:10:36.60 bitrate=N/A speed=18.4x    frame=16173 fps=461 q=-0.0 size=N/A time=00:10:46.92 bitrate=N/A speed=18.4x    frame=16435 fps=461 q=-0.0 size=N/A time=00:10:57.40 bitrate=N/A speed=18.5x    frame=16705 fps=462 q=-0.0 size=N/A time=00:11:08.20 bitrate=N/A speed=18.5x    frame=16967 fps=463 q=-0.0 size=N/A time=00:11:18.68 bitrate=N/A speed=18.5x    frame=17227 fps=463 q=-0.0 size=N/A time=00:11:29.08 bitrate=N/A speed=18.5x    frame=17509 fps=464 q=-0.0 size=N/A time=00:11:40.36 bitrate=N/A speed=18.6x    frame=17778 fps=465 q=-0.0 size=N/A time=00:11:51.12 bitrate=N/A speed=18.6x    frame=18018 fps=465 q=-0.0 size=N/A time=00:12:00.72 bitrate=N/A speed=18.6x    frame=18274 fps=465 q=-0.0 size=N/A time=00:12:10.96 bitrate=N/A speed=18.6x    frame=18547 fps=466 q=-0.0 size=N/A time=00:12:21.88 bitrate=N/A speed=18.6x    frame=18825 fps=467 q=-0.0 size=N/A time=00:12:33.00 bitrate=N/A speed=18.7x    frame=19084 fps=467 q=-0.0 size=N/A time=00:12:43.36 bitrate=N/A speed=18.7x    frame=19340 fps=468 q=-0.0 size=N/A time=00:12:53.60 bitrate=N/A speed=18.7x    frame=19621 fps=469 q=-0.0 size=N/A time=00:13:04.84 bitrate=N/A speed=18.8x    frame=19885 fps=469 q=-0.0 size=N/A time=00:13:15.40 bitrate=N/A speed=18.8x    frame=20167 fps=470 q=-0.0 size=N/A time=00:13:26.68 bitrate=N/A speed=18.8x    frame=20442 fps=471 q=-0.0 size=N/A time=00:13:37.68 bitrate=N/A speed=18.8x    frame=20716 fps=472 q=-0.0 size=N/A time=00:13:48.64 bitrate=N/A speed=18.9x    frame=20993 fps=473 q=-0.0 size=N/A time=00:13:59.72 bitrate=N/A speed=18.9x    frame=21271 fps=473 q=-0.0 size=N/A time=00:14:10.84 bitrate=N/A speed=18.9x    frame=21539 fps=474 q=-0.0 size=N/A time=00:14:21.56 bitrate=N/A speed=  19x    frame=21827 fps=475 q=-0.0 size=N/A time=00:14:33.08 bitrate=N/A speed=  19x    frame=22103 fps=475 q=-0.0 size=N/A time=00:14:44.12 bitrate=N/A speed=  19x    frame=22386 fps=476 q=-0.0 size=N/A time=00:14:55.44 bitrate=N/A speed=  19x    frame=22648 fps=476 q=-0.0 size=N/A time=00:15:05.92 bitrate=N/A speed=19.1x    frame=22928 fps=477 q=-0.0 size=N/A time=00:15:17.12 bitrate=N/A speed=19.1x    frame=23192 fps=477 q=-0.0 size=N/A time=00:15:27.68 bitrate=N/A speed=19.1x    frame=23457 fps=478 q=-0.0 size=N/A time=00:15:38.28 bitrate=N/A speed=19.1x    frame=23737 fps=479 q=-0.0 size=N/A time=00:15:49.48 bitrate=N/A speed=19.1x    frame=24010 fps=479 q=-0.0 size=N/A time=00:16:00.40 bitrate=N/A speed=19.2x    frame=24280 fps=480 q=-0.0 size=N/A time=00:16:11.20 bitrate=N/A speed=19.2x    frame=24551 fps=480 q=-0.0 size=N/A time=00:16:22.04 bitrate=N/A speed=19.2x    frame=24835 fps=481 q=-0.0 size=N/A time=00:16:33.40 bitrate=N/A speed=19.2x    frame=25102 fps=481 q=-0.0 size=N/A time=00:16:44.08 bitrate=N/A speed=19.2x    frame=25388 fps=482 q=-0.0 size=N/A time=00:16:55.52 bitrate=N/A speed=19.3x    frame=25654 fps=482 q=-0.0 size=N/A time=00:17:06.16 bitrate=N/A speed=19.3x    frame=25926 fps=483 q=-0.0 size=N/A time=00:17:17.04 bitrate=N/A speed=19.3x    frame=26187 fps=483 q=-0.0 size=N/A time=00:17:27.48 bitrate=N/A speed=19.3x    frame=26460 fps=483 q=-0.0 size=N/A time=00:17:38.40 bitrate=N/A speed=19.3x    frame=26719 fps=483 q=-0.0 size=N/A time=00:17:48.76 bitrate=N/A speed=19.3x    frame=26970 fps=483 q=-0.0 size=N/A time=00:17:58.80 bitrate=N/A speed=19.3x    frame=27250 fps=484 q=-0.0 size=N/A time=00:18:10.00 bitrate=N/A speed=19.4x    frame=27515 fps=484 q=-0.0 size=N/A time=00:18:20.60 bitrate=N/A speed=19.4x    frame=27788 fps=485 q=-0.0 size=N/A time=00:18:31.52 bitrate=N/A speed=19.4x    frame=28047 fps=485 q=-0.0 size=N/A time=00:18:41.88 bitrate=N/A speed=19.4x    frame=28265 fps=484 q=-0.0 size=N/A time=00:18:50.60 bitrate=N/A speed=19.4x    frame=28494 fps=484 q=-0.0 size=N/A time=00:18:59.76 bitrate=N/A speed=19.4x    frame=28716 fps=483 q=-0.0 size=N/A time=00:19:08.64 bitrate=N/A speed=19.3x    frame=28925 fps=483 q=-0.0 size=N/A time=00:19:17.00 bitrate=N/A speed=19.3x    frame=29144 fps=482 q=-0.0 size=N/A time=00:19:25.76 bitrate=N/A speed=19.3x    frame=29403 fps=482 q=-0.0 size=N/A time=00:19:36.12 bitrate=N/A speed=19.3x    frame=29691 fps=483 q=-0.0 size=N/A time=00:19:47.64 bitrate=N/A speed=19.3x    frame=29960 fps=483 q=-0.0 size=N/A time=00:19:58.40 bitrate=N/A speed=19.3x    frame=30244 fps=484 q=-0.0 size=N/A time=00:20:09.76 bitrate=N/A speed=19.4x    frame=30494 fps=484 q=-0.0 size=N/A time=00:20:19.76 bitrate=N/A speed=19.4x    frame=30760 fps=484 q=-0.0 size=N/A time=00:20:30.40 bitrate=N/A speed=19.4x    frame=31013 fps=484 q=-0.0 size=N/A time=00:20:40.52 bitrate=N/A speed=19.4x    frame=31272 fps=484 q=-0.0 size=N/A time=00:20:50.88 bitrate=N/A speed=19.4x    frame=31529 fps=485 q=-0.0 size=N/A time=00:21:01.16 bitrate=N/A speed=19.4x    frame=31815 fps=485 q=-0.0 size=N/A time=00:21:12.60 bitrate=N/A speed=19.4x    frame=32048 fps=485 q=-0.0 size=N/A time=00:21:21.92 bitrate=N/A speed=19.4x    frame=32272 fps=484 q=-0.0 size=N/A time=00:21:30.88 bitrate=N/A speed=19.4x    frame=32514 fps=484 q=-0.0 size=N/A time=00:21:40.56 bitrate=N/A speed=19.4x    frame=32696 fps=483 q=-0.0 size=N/A time=00:21:47.84 bitrate=N/A speed=19.3x    frame=32914 fps=483 q=-0.0 size=N/A time=00:21:56.56 bitrate=N/A speed=19.3x    frame=33102 fps=482 q=-0.0 size=N/A time=00:22:04.08 bitrate=N/A speed=19.3x    frame=33285 fps=481 q=-0.0 size=N/A time=00:22:11.40 bitrate=N/A speed=19.2x    frame=33467 fps=480 q=-0.0 size=N/A time=00:22:18.68 bitrate=N/A speed=19.2x    frame=33669 fps=479 q=-0.0 size=N/A time=00:22:26.76 bitrate=N/A speed=19.2x    frame=33851 fps=479 q=-0.0 size=N/A time=00:22:34.04 bitrate=N/A speed=19.1x    frame=34055 fps=478 q=-0.0 size=N/A time=00:22:42.20 bitrate=N/A speed=19.1x    frame=34230 fps=477 q=-0.0 size=N/A time=00:22:49.20 bitrate=N/A speed=19.1x    frame=34454 fps=477 q=-0.0 size=N/A time=00:22:58.16 bitrate=N/A speed=19.1x    frame=34684 fps=476 q=-0.0 size=N/A time=00:23:07.40 bitrate=N/A speed=19.1x    [Parsed_ssim_10 @ 000001ad0bf7cdc0] SSIM Y:0.992706 (21.370050) U:0.994848 (22.880341) V:0.995198 (23.185639) All:0.993478 (21.856192)
[out#0/null @ 000001ad7ec44d00] video:14959KiB audio:261116KiB subtitle:0KiB other streams:0KiB global headers:0KiB muxing overhead: unknown
frame=34813 fps=476 q=-0.0 Lsize=N/A time=00:23:12.52 bitrate=N/A speed=  19x    
